<svg width="28" height="34" viewBox="0 0 28 34" fill="none" xmlns="http://www.w3.org/2000/svg">
<path d="M1.42667 16.4267C1.19478 16.6586 1.12541 17.0073 1.25091 17.3103C1.37641 17.6133 1.67206 17.8108 2 17.8108H12.9678L10.1243 31.8389C10.0532 32.1895 10.2203 32.5452 10.5354 32.7144C10.8505 32.8836 11.2393 32.8263 11.4922 32.5733L26.4922 17.5733C26.7241 17.3414 26.7935 16.9927 26.668 16.6897C26.5425 16.3867 26.2469 16.1892 25.9189 16.1892H14.9511L17.7947 2.16108C17.8657 1.81052 17.6987 1.45481 17.3835 1.28563C17.0684 1.11644 16.6796 1.17375 16.4267 1.42667L1.42667 16.4267Z" fill="white" stroke="white" stroke-width="1.62162" stroke-linejoin="round"/>
</svg>
